<svg width="48" height="48" viewBox="0 0 48 48" fill="none" xmlns="http://www.w3.org/2000/svg">
<g clip-path="url(#clip0_57_426)">
<path d="M36.0153 0H11.9847C5.36573 0 0 5.36573 0 11.9847V36.0153C0 42.6343 5.36573 48 11.9847 48H36.0153C42.6343 48 48 42.6343 48 36.0153V11.9847C48 5.36573 42.6343 0 36.0153 0Z" fill="url(#paint0_linear_57_426)"/>
<path d="M36.0153 0H11.9847C5.36573 0 0 5.36573 0 11.9847V36.0153C0 42.6343 5.36573 48 11.9847 48H36.0153C42.6343 48 48 42.6343 48 36.0153V11.9847C48 5.36573 42.6343 0 36.0153 0Z" fill="url(#paint1_radial_57_426)"/>
<path fill-rule="evenodd" clip-rule="evenodd" d="M24.3942 42.1596C20.7939 42.1596 19.1207 41.634 16.2125 39.5316C14.3729 41.8968 8.54754 43.7452 8.29347 40.5828C8.29347 38.2089 7.76787 36.2029 7.17219 34.0129C6.46266 31.3148 5.65674 28.3101 5.65674 23.9565C5.65674 13.5584 14.1889 5.73584 24.2979 5.73584C34.4156 5.73584 42.3433 13.9439 42.3433 24.0528C42.3773 34.0054 34.3468 42.1065 24.3942 42.1596ZM24.5432 14.7235C19.6201 14.4695 15.7832 17.8771 14.9335 23.2207C14.2327 27.6444 15.4766 33.0318 16.5366 33.3121C17.0446 33.4347 18.3236 32.401 19.1207 31.6039C20.4389 32.5145 21.9739 33.0614 23.5708 33.1894C28.6719 33.4348 33.0307 29.5513 33.3731 24.4558C33.5725 19.3495 29.645 15.0245 24.5432 14.7323V14.7235Z" fill="white"/>
</g>
<defs>
<linearGradient id="paint0_linear_57_426" x1="5.65666" y1="36.5057" x2="48" y2="24" gradientUnits="userSpaceOnUse">
<stop stop-color="#44CCFF"/>
<stop offset="0.662" stop-color="#5533EE"/>
<stop offset="1" stop-color="#9933DD"/>
</linearGradient>
<radialGradient id="paint1_radial_57_426" cx="0" cy="0" r="1" gradientUnits="userSpaceOnUse" gradientTransform="translate(-1.14196 -21.0809) rotate(51.356) scale(58.2488 24)">
<stop stop-color="#0000FF"/>
<stop offset="1" stop-opacity="0"/>
</radialGradient>
<clipPath id="clip0_57_426">
<rect width="48" height="48" fill="white"/>
</clipPath>
</defs>
</svg>
